<?xml version="1.0" standalone="no"?><!DOCTYPE svg PUBLIC "-//W3C//DTD SVG 1.1//EN" "http://www.w3.org/Graphics/SVG/1.1/DTD/svg11.dtd"><svg t="1645598149674" class="icon" viewBox="0 0 1024 1024" version="1.1" xmlns="http://www.w3.org/2000/svg" p-id="11614" xmlns:xlink="http://www.w3.org/1999/xlink" width="200" height="200"><defs><style type="text/css"></style></defs><path d="M954.02496 733.44C977.92 822.18496 962.56 888.2176 962.56 888.2176H135.92064V194.4576h449.3312v334.08h0.2048c0 83.93216 167.18336 83.72736 167.18336 83.72736 107.52 5.12 185.64608 62.72512 201.38496 121.17504z" fill="#BF886D" p-id="11615"></path><path d="M441.99424 264.8064S380.47232 341.65248 298.02496 372.48c-36.80256 13.76256-33.48992 74.1376-33.48992 74.1376v441.6h-128.6144V264.8064h306.0736z" fill="#956134" opacity=".3" p-id="11616"></path><path d="M657.01376 79.58016c-33.21856-33.98656-78.78656-21.73952-96.55296-8.71936-17.77152-13.02016-45.3888-15.04768-55.14752-15.04768-9.74848 0-37.36064 2.02752-55.13216 15.04256-17.7664-13.01504-36.21888-15.04256-45.97248-15.04256s-28.19072 2.02752-45.952 15.03744c-17.76128-13.0048-36.1984-15.03744-45.952-15.03744s-28.19584 2.02752-45.96224 15.03744c-17.76128-13.0048-36.20352-15.03744-45.95712-15.03744s-28.20096 2.02752-45.96224 15.04256c-17.76128-13.00992-49.51552-15.04768-66.28352-14.04416-22.81984 1.36704-45.08672 16.09216-48.14336 61.9008l-0.18432 97.29024c-3.05664 37.31456 33.60256 78.55616 72.69376 45.50656 20.36736 20.56704 30.36672 23.40864 41.91744 23.40864 9.74848 0 28.20096-2.02752 45.96224-15.03744 17.76128 13.0048 36.20864 15.03744 45.96224 15.03744s28.19584-2.02752 45.95712-15.03232c17.76128 13.0048 36.20352 15.03232 45.95712 15.03232s28.19584-2.02752 45.95712-15.03232c17.76128 12.99968 36.20352 15.03232 45.95712 15.03232s28.20608-2.02752 45.97248-15.04256c17.7664 13.01504 36.21376 15.04256 45.96736 15.04256 9.7536 0 28.22144-2.02752 45.99296-15.05792 17.78176 13.0304 36.23936 15.05792 45.99296 15.05792 0 0 39.71584 0 39.71584-68.9152V162.6112c0-43.32032-4.9664-70.8096-16.80384-83.03104z" fill="#F7D5A9" p-id="11617"></path><path d="M585.25184 271.872v39.2192c-16.8448 11.264-33.8944 13.056-43.1104 13.056-9.7792 0-28.2112-1.9968-45.97248-15.04768-17.77152 13.056-36.2496 15.04768-45.9776 15.04768-9.7792 0-28.2112-1.9968-45.97248-15.0016-17.77152 13.0048-36.1984 15.0016-45.93152 15.0016-9.77408 0-28.2112-1.9968-45.97248-15.0016-17.7664 13.0048-36.1984 15.0016-45.9264 15.0016-9.7792 0-28.21632-1.9968-45.9776-15.0016-17.7664 13.0048-36.1984 15.0016-45.97248 15.0016-10.8544 0-20.4288-2.50368-38.50752-20.0704v-39.2704c18.0736 17.56672 27.648 20.12672 38.50752 20.12672 9.77408 0 28.2112-2.048 45.97248-15.0528 17.7664 13.0048 36.1984 15.0528 45.9776 15.0528 9.72288 0 28.16-2.048 45.9264-15.0528 17.7664 13.0048 36.1984 15.0528 45.97248 15.0528 9.728 0 28.16-2.048 45.93152-15.0528 17.7664 13.0048 36.19328 15.0528 45.97248 15.0528 9.728 0 28.2112-2.048 45.9776-15.0528 17.7664 13.0048 36.19328 15.0528 45.97248 15.0528 9.216-0.00512 26.2656-1.84832 43.1104-13.06112z" fill="#956134" opacity=".3" p-id="11618"></path><path d="M135.92064 888.2176v85.38624h66.95424l75.21792-16.5376 54.69696 16.5376 95.67744-16.5376 54.68672 16.5376 95.67232-16.5376 54.69696 16.5376 95.66208-16.5376 54.69696 16.5376 95.66208-16.5376 83.44064 14.57152V888.2176z" fill="#F7D5A9" p-id="11619"></path><path d="M392.13056 530.56a43.776 43.776 0 0 1-43.776 43.776H129.09056a43.776 43.776 0 0 1 0-87.552h219.264a43.776 43.776 0 0 1 43.776 43.776z" fill="#956134" p-id="11620"></path><path d="M333.45536 530.56m-71.552 0a71.552 71.552 0 1 0 143.104 0 71.552 71.552 0 1 0-143.104 0Z" fill="#F7D5A9" p-id="11621"></path><path d="M962.56512 888.2176H263.83872l426.13248-281.91232c33.38752 5.888 62.0032 5.9392 62.6688 5.9392 107.52 5.12 185.6512 62.72 201.3696 121.1904 23.91552 88.73472 8.55552 154.78272 8.55552 154.78272z" fill="#956134" opacity=".3" p-id="11622"></path></svg>