<?xml version="1.0" standalone="no"?><!DOCTYPE svg PUBLIC "-//W3C//DTD SVG 1.1//EN" "http://www.w3.org/Graphics/SVG/1.1/DTD/svg11.dtd"><svg t="1645598132122" class="icon" viewBox="0 0 1024 1024" version="1.1" xmlns="http://www.w3.org/2000/svg" p-id="10526" xmlns:xlink="http://www.w3.org/1999/xlink" width="200" height="200"><defs><style type="text/css"></style></defs><path d="M942.63808 491.74528l-100.98176-165.92896s-10.40384-18.14016-33.55648-45.4912c-18.304-21.62688-50.14528-28.57472-62.08512-32.36352s-164.8128-40.96-239.99488-40.96-214.20544 39.26528-223.56992 41.1392-49.49504 14.68928-64.10752 35.06688c-8.14592 11.35104-26.752 39.34208-26.752 39.34208L88.51456 491.74528c-20.58752 32.08192-11.264 74.77248 20.80768 95.36 32.0768 20.5824 74.77248 11.264 95.35488-20.8128l46.06976-71.78752v391.75168c0 28.27264 22.92736 51.2 51.2 51.2h436.90496c28.27264 0 51.2-22.92736 51.2-51.2V509.53728l36.41856 56.7552c20.58752 32.08192 63.27808 41.3952 95.35488 20.8128 32.08192-20.59264 41.40032-63.27808 20.8128-95.36z" fill="#E84668" p-id="10527"></path><path d="M520.40704 232.6016m-142.86848 0a142.86848 142.86848 0 1 0 285.73696 0 142.86848 142.86848 0 1 0-285.73696 0Z" fill="#595757" p-id="10528"></path><path d="M858.10176 644.7872a36.02944 36.02944 0 0 0 50.64192 5.5296l88.18176-70.81472a36.03456 36.03456 0 0 0 5.52448-50.64192l-24.84736-30.93504a36.03456 36.03456 0 0 0-50.64192-5.53472l-88.18176 70.81472a36.02432 36.02432 0 0 0-5.5296 50.64192l24.85248 30.94016z" fill="#EFEFEF" p-id="10529"></path><path d="M527.39072 460.80512c-14.92992 0-29.16864-8.76544-42.69568-17.49504-73.6768-47.54944-156.57984-105.38496-156.57984-215.552 0-106.02496 86.26176-192.28672 192.28672-192.28672 106.03008 0 192.29184 86.26176 192.29184 192.28672 0 97.72544-73.12384 179.84512-170.10176 191.0272-28.05248 3.24096-53.48352-16.90624-56.72448-45.0048-3.23584-28.08832 16.91136-53.48352 45.0048-56.72448 45.27616-5.21728 79.42144-43.60704 79.42144-89.2928 0-49.56672-40.32512-89.88672-89.89184-89.88672s-89.88672 40.32-89.88672 89.88672c0 89.68704 70.39488 89.26208 136.65792 149.65248 20.89984 19.0464 22.05696 53.52448-2.26304 72.2944-9.64608 7.44448-26.2144 11.09504-37.51936 11.09504z" fill="#DCDDDD" p-id="10530"></path><path d="M598.85056 403.3536c-1.59232 11.264-7.3728 22.07232-17.664 30.0032-1.3312 1.024-2.816 1.9968-4.4032 2.8672a45.76256 45.76256 0 0 0 6.144-26.6752 48.47616 48.47616 0 0 0-15.71328-32.256c-21.0944-19.2-42.55232-32.256-62.0544-43.9808l-3.94752-2.26816c8.73984-8.07936 17.31072-11.35104 22.32832-12.72832 18.88768 11.46368 39.57248 24.21248 59.904 42.752a48.53248 48.53248 0 0 1 15.40608 42.28608z" fill="#B5B5B6" p-id="10531"></path><path d="M173.056 644.7872a36.02944 36.02944 0 0 1-50.64192 5.5296L34.23744 579.50208a36.03456 36.03456 0 0 1-5.52448-50.64192l24.84736-30.93504a36.03456 36.03456 0 0 1 50.64192-5.53472l88.18176 70.81472a36.02432 36.02432 0 0 1 5.5296 50.64192l-24.8576 30.94016z" fill="#EFEFEF" p-id="10532"></path><path d="M564.8896 449.69472c-7.9872 6.1952-20.7872 9.7792-31.3344 10.752v477.0048h65.7408V403.20512c-5.376 2.4064-10.8544 4.5568-16.4352 6.4512 1.0752 14.6432-4.608 29.7472-17.9712 40.0384z" fill="#D62146" p-id="10533"></path><path d="M462.88384 564.1216m-27.93984 0a27.93984 27.93984 0 1 0 55.87968 0 27.93984 27.93984 0 1 0-55.87968 0Z" fill="#DCDDDD" p-id="10534"></path><path d="M490.82368 681.37472a27.93984 27.93984 0 1 1-55.87968 0 27.94496 27.94496 0 0 1 55.87968 0z" fill="#DCDDDD" p-id="10535"></path><path d="M462.88384 798.63808m-27.93984 0a27.93984 27.93984 0 1 0 55.87968 0 27.93984 27.93984 0 1 0-55.87968 0Z" fill="#DCDDDD" p-id="10536"></path></svg>